<svg width="24" height="28" viewBox="0 0 24 28" fill="none" xmlns="http://www.w3.org/2000/svg">
<g opacity="0.4">
<path fill-rule="evenodd" clip-rule="evenodd" d="M16.4109 3.75195L16.4119 4.57747C19.1665 4.81522 20.9862 6.88231 20.9891 10.0523L21 19.3311C21.0039 22.7873 19.0322 24.9138 15.8718 24.9193L8.15188 24.9303C5.01119 24.9347 3.01482 22.7576 3.01087 19.2915L3.00001 10.1216C2.99606 6.93074 4.75153 4.86915 7.50617 4.59068L7.50518 3.76516C7.5042 3.28086 7.83001 2.91653 8.26444 2.91653C8.69886 2.91543 9.02468 3.27865 9.02567 3.76296L9.02666 4.53344L14.8914 4.52464L14.8904 3.75415C14.8894 3.26985 15.2152 2.90662 15.6497 2.90552C16.0742 2.90442 16.4099 3.26765 16.4109 3.75195ZM4.52146 10.4618L19.4696 10.4397V10.0545C19.4272 7.68801 18.349 6.44644 16.4138 6.26152L16.4148 7.10905C16.4148 7.58235 16.0801 7.95768 15.6556 7.95768C15.2211 7.95878 14.8943 7.58455 14.8943 7.11125L14.8933 6.21969L9.02862 6.2285L9.0296 7.11896C9.0296 7.59336 8.70477 7.96759 8.27035 7.96759C7.83592 7.96869 7.50912 7.59556 7.50912 7.12116L7.50813 6.27363C5.58284 6.48606 4.51751 7.73204 4.52048 10.1194L4.52146 10.4618ZM15.2399 15.4644V15.4765C15.2498 15.9828 15.625 16.367 16.0801 16.3559C16.5244 16.3438 16.8789 15.9245 16.869 15.4182C16.8483 14.9339 16.4918 14.5387 16.0485 14.5398C15.5943 14.5508 15.2389 14.9581 15.2399 15.4644ZM16.0554 20.4065C15.6013 20.3955 15.235 19.9783 15.234 19.472C15.2241 18.9657 15.5884 18.5463 16.0426 18.5342H16.0525C16.5165 18.5342 16.8927 18.9514 16.8927 19.4687C16.8937 19.986 16.5185 20.4054 16.0554 20.4065ZM11.1721 15.482C11.1919 15.9883 11.568 16.3835 12.0222 16.3614C12.4665 16.3383 12.821 15.9201 12.8012 15.4138C12.7903 14.9184 12.425 14.5332 11.9807 14.5343C11.5266 14.5563 11.1711 14.9757 11.1721 15.482ZM12.0261 20.357C11.572 20.379 11.1968 19.9838 11.176 19.4775C11.176 18.9712 11.5305 18.5529 11.9847 18.5298C12.429 18.5287 12.7953 18.914 12.8051 19.4082C12.8259 19.9156 12.4704 20.3338 12.0261 20.357ZM7.1043 15.5205C7.12405 16.0268 7.50022 16.4231 7.95439 16.4C8.39869 16.378 8.75314 15.9586 8.73241 15.4523C8.72253 14.957 8.35722 14.5717 7.91194 14.5728C7.45777 14.5948 7.10332 15.0142 7.1043 15.5205ZM7.95836 20.3625C7.50419 20.3856 7.12901 19.9893 7.10827 19.483C7.10728 18.9767 7.46272 18.5573 7.91689 18.5353C8.36119 18.5342 8.72749 18.9195 8.73736 19.4148C8.7581 19.9211 8.40365 20.3405 7.95836 20.3625Z" fill="white"/>
</g>
</svg>
