<svg width="29" height="32" viewBox="0 0 29 32" fill="none" xmlns="http://www.w3.org/2000/svg">
<path d="M25.4875 0.166016H3.71249C3.27393 0.16696 2.83986 0.25084 2.43508 0.412865C2.0303 0.574889 1.66274 0.811884 1.35339 1.11031C1.04403 1.40874 0.798956 1.76275 0.632152 2.15212C0.465348 2.54149 0.380087 2.9586 0.381237 3.37962V24.4708C0.380087 24.8918 0.465348 25.3089 0.632152 25.6983C0.798956 26.0877 1.04403 26.4417 1.35339 26.7401C1.66274 27.0385 2.0303 27.2755 2.43508 27.4376C2.83986 27.5996 3.27393 27.6835 3.71249 27.6844H22.14L21.2787 24.7984L23.3587 26.6548L25.325 28.402L28.8187 31.366V3.37962C28.8199 2.9586 28.7346 2.54149 28.5678 2.15212C28.401 1.76275 28.1559 1.40874 27.8466 1.11031C27.5372 0.811884 27.1697 0.574889 26.7649 0.412865C26.3601 0.25084 25.926 0.16696 25.4875 0.166016ZM19.215 20.5396C19.215 20.5396 18.63 19.8688 18.1425 19.276C19.3204 19.0098 20.3622 18.3522 21.0837 17.4196C20.499 17.7932 19.8721 18.1019 19.215 18.34C18.459 18.6498 17.6684 18.8749 16.8587 19.0108C15.467 19.2568 14.0397 19.2515 12.65 18.9952C11.8341 18.842 11.0345 18.6174 10.2612 18.3244C9.85362 18.1739 9.45727 17.9967 9.07499 17.794C9.02624 17.7628 8.97749 17.7472 8.92874 17.716C8.90429 17.7043 8.88227 17.6885 8.86374 17.6692C8.70785 17.5877 8.55602 17.4992 8.40874 17.404C9.10415 18.3171 10.11 18.9682 11.2525 19.2448C10.765 19.8376 10.1637 20.5396 10.1637 20.5396C9.19845 20.5646 8.24157 20.3614 7.37731 19.9479C6.51305 19.5344 5.76792 18.9233 5.20749 18.1684C5.26024 15.0058 6.06036 11.8961 7.54749 9.07362C8.85616 8.08686 10.4517 7.51451 12.1137 7.43562L12.2762 7.62282C10.7126 7.99431 9.25337 8.69205 8.00249 9.66642C8.00249 9.66642 8.35999 9.47922 8.96124 9.21402C10.1293 8.70214 11.3742 8.37046 12.65 8.23122C12.741 8.21314 12.8334 8.2027 12.9262 8.20002C14.0152 8.06382 15.1172 8.05334 16.2087 8.16882C17.9253 8.35701 19.5869 8.86577 21.1 9.66642C19.9125 8.7385 18.5334 8.06321 17.0537 7.68522L17.2812 7.43562C18.9433 7.51451 20.5388 8.08686 21.8475 9.07362C23.3346 11.8961 24.1347 15.0058 24.1875 18.1684C23.6225 18.9226 22.8742 19.5328 22.0076 19.9461C21.141 20.3593 20.1823 20.5631 19.215 20.5396Z" fill="#999999"/>
</svg>
