<svg width="36" height="37" viewBox="0 0 36 37" fill="none" xmlns="http://www.w3.org/2000/svg">
<path fill-rule="evenodd" clip-rule="evenodd" d="M17.9685 0.96605C13.797 0.966627 9.76185 2.49124 6.58475 5.26717C3.40765 8.0431 1.2959 11.8893 0.627255 16.1176C-0.0413889 20.346 0.776693 24.6807 2.93516 28.3464C5.09363 32.0121 8.45167 34.7696 12.4086 36.1257C13.2871 36.2933 13.6636 35.7391 13.6636 35.2622V32.1947C8.78148 33.2774 7.75233 29.7717 7.75233 29.7717C7.40901 28.667 6.68644 27.728 5.71914 27.1296C4.12522 26.0212 5.84464 26.0341 5.84464 26.0341C6.40139 26.1148 6.93281 26.3252 7.39829 26.6491C7.86378 26.973 8.25103 27.4018 8.53047 27.9029C9.0166 28.7983 9.82912 29.4588 10.7894 29.7391C11.7496 30.0195 12.779 29.8968 13.6511 29.3979C13.722 28.4835 14.1145 27.6268 14.7555 26.9878C10.8649 26.5238 6.76084 24.9772 6.76084 18.069C6.73238 16.2748 7.37986 14.5386 8.56812 13.223C8.03028 11.6689 8.09316 9.96215 8.74382 8.45423C8.74382 8.45423 10.2122 7.96447 13.5758 10.2973C16.4517 9.49169 19.4853 9.49169 22.3612 10.2973C25.7122 7.96447 27.1806 8.45423 27.1806 8.45423C27.8313 9.96215 27.8942 11.6689 27.3563 13.223C28.5446 14.5386 29.1921 16.2748 29.1636 18.069C29.1636 25.003 25.0596 26.5238 21.1438 26.9749C21.5632 27.4115 21.8867 27.9354 22.0924 28.5112C22.2981 29.087 22.3812 29.7014 22.3361 30.313V35.2622C22.3361 35.8551 22.6499 36.3062 23.5911 36.1257C27.5533 34.7679 30.9148 32.0051 33.0729 28.3327C35.231 24.6602 36.0446 20.3184 35.3677 16.0857C34.6909 11.8531 32.5678 8.00646 29.3793 5.23569C26.1908 2.46493 22.1454 0.951232 17.9685 0.96605Z" fill="#999999"/>
</svg>
