<svg width="30" height="29" viewBox="0 0 30 29" fill="none" xmlns="http://www.w3.org/2000/svg">
<path d="M26.9733 0.166016H2.49331C1.29331 0.166016 0.333313 1.12602 0.333313 2.20602V26.806C0.333313 27.886 1.29331 28.846 2.49331 28.846H26.9733C28.1733 28.846 29.1333 27.886 29.1333 26.806V2.20602C29.1333 1.12602 28.1733 0.166016 26.9733 0.166016ZM8.85331 24.646H4.65331V10.966H8.85331V24.646ZM6.81331 9.04601C5.49331 9.04601 4.29331 7.96602 4.29331 6.52602C4.29331 5.08602 5.37331 4.00602 6.81331 4.00602C8.13331 4.00602 9.33331 5.08602 9.33331 6.52602C9.33331 7.96602 8.13331 9.04601 6.81331 9.04601ZM24.9333 24.526H20.7333V17.806C20.7333 16.246 20.7333 14.086 18.4533 14.086C16.1733 14.086 15.9333 15.886 15.9333 17.566V24.406H11.7333V10.966H15.6933V12.766H15.8133C16.4133 11.686 17.8533 10.486 19.8933 10.486C24.2133 10.486 25.0533 13.366 25.0533 17.086V24.526H24.9333Z" fill="#999999"/>
</svg>
