<svg width="24" height="27" viewBox="0 0 24 27" fill="none" xmlns="http://www.w3.org/2000/svg">
<g opacity="0.4">
<path fill-rule="evenodd" clip-rule="evenodd" d="M20.4023 15.5175C20.76 15.7268 21.036 16.0571 21.2301 16.3875C21.6083 17.0703 21.5776 17.9072 21.2097 18.645L20.4943 19.9665C20.1162 20.6713 19.411 21.1118 18.6855 21.1118C18.3278 21.1118 17.9292 21.0017 17.6022 20.7815C17.3365 20.5942 17.0299 20.5282 16.7029 20.5282C15.6911 20.5282 14.8429 21.4422 14.8122 22.5324C14.8122 23.7989 13.872 24.79 12.6968 24.79H11.3069C10.1215 24.79 9.18125 23.7989 9.18125 22.5324C9.16081 21.4422 8.31259 20.5282 7.30085 20.5282C6.96361 20.5282 6.65702 20.5942 6.40153 20.7815C6.0745 21.0017 5.66572 21.1118 5.31825 21.1118C4.58245 21.1118 3.87729 20.6713 3.49917 19.9665L2.79402 18.645C2.4159 17.9292 2.39546 17.0703 2.77358 16.3875C2.93709 16.0571 3.24368 15.7268 3.59115 15.5175C3.87729 15.3633 4.06125 15.1101 4.23498 14.8127C4.74596 13.8657 4.43937 12.6212 3.57071 12.0596C2.55897 11.4319 2.23194 10.0333 2.81446 8.9431L3.49917 7.64364C4.09191 6.55341 5.35913 6.16797 6.38109 6.80669C7.27019 7.33529 8.425 6.98289 8.9462 6.04684C9.10972 5.73849 9.20169 5.40812 9.18125 5.07774C9.16081 4.64826 9.27323 4.2408 9.4674 3.91043C9.84553 3.22766 10.5302 2.78716 11.2763 2.76514H12.7172C13.4735 2.76514 14.1582 3.22766 14.5363 3.91043C14.7203 4.2408 14.8429 4.64826 14.8122 5.07774C14.7918 5.40812 14.8838 5.73849 15.0473 6.04684C15.5685 6.98289 16.7233 7.33529 17.6226 6.80669C18.6344 6.16797 19.9118 6.55341 20.4943 7.64364L21.179 8.9431C21.7718 10.0333 21.4447 11.4319 20.4228 12.0596C19.5541 12.6212 19.2475 13.8657 19.7687 14.8127C19.9322 15.1101 20.1162 15.3633 20.4023 15.5175ZM9.10974 13.7884C9.10974 15.5173 10.4076 16.8939 12.0121 16.8939C13.6166 16.8939 14.8838 15.5173 14.8838 13.7884C14.8838 12.0594 13.6166 10.6719 12.0121 10.6719C10.4076 10.6719 9.10974 12.0594 9.10974 13.7884Z" fill="white"/>
</g>
</svg>
