<svg width="34" height="33" viewBox="0 0 34 33" fill="none" xmlns="http://www.w3.org/2000/svg">
<path d="M17.0667 0.166016C7.78916 0.166016 0.266663 7.50941 0.266663 16.566C0.266663 25.6226 7.78916 32.966 17.0667 32.966C26.3442 32.966 33.8667 25.6226 33.8667 16.566C33.8667 7.50941 26.3442 0.166016 17.0667 0.166016ZM25.1404 12.5282C25.1517 12.7003 25.1517 12.8797 25.1517 13.0554C25.1517 18.4293 20.9592 24.6196 13.2979 24.6196C10.9354 24.6196 8.74541 23.9497 6.90041 22.7966C7.23791 22.8332 7.56041 22.8478 7.90541 22.8478C9.85541 22.8478 11.6479 22.2035 13.0767 21.1126C11.2467 21.076 9.70916 19.9046 9.18416 18.2939C9.82541 18.3854 10.4029 18.3854 11.0629 18.2207C10.1206 18.0338 9.27369 17.5342 8.66597 16.8068C8.05825 16.0794 7.72724 15.1691 7.72916 14.2305V14.1792C8.28041 14.4831 8.92916 14.6698 9.60791 14.6954C9.03732 14.3242 8.56938 13.8213 8.24558 13.2312C7.92178 12.6412 7.75213 11.9823 7.75166 11.3129C7.75166 10.5551 7.95416 9.86325 8.31791 9.26289C9.3638 10.5197 10.6689 11.5477 12.1484 12.2799C13.6279 13.0122 15.2487 13.4323 16.9054 13.513C16.3167 10.7491 18.4317 8.51244 20.9742 8.51244C22.1742 8.51244 23.2542 9.00298 24.0154 9.79369C24.9567 9.62164 25.8567 9.27753 26.6592 8.81628C26.3479 9.75709 25.6954 10.5515 24.8292 11.053C25.6692 10.9651 26.4792 10.7382 27.2292 10.4197C26.6629 11.2324 25.9542 11.9535 25.1404 12.5282Z" fill="#999999"/>
</svg>
